<svg width="15" height="20" viewBox="0 0 15 20" fill="none" xmlns="http://www.w3.org/2000/svg">
<path d="M2.39286 5.15385H1.38237C1.17124 5.15385 1 4.97666 1 4.75823V2.78023C1 2.56179 1.17126 2.38462 1.38237 2.38462H5.64286M2.39286 5.15385V17.6785C2.39286 18.4071 2.9746 19 3.68953 19H11.7748C12.4897 19 13.0714 18.4071 13.0714 17.6785V5.15385M2.39286 5.15385H13.0714M13.0714 5.15385H13.6176C13.8287 5.15385 14 4.97668 14 4.75823V2.78023C14 2.5618 13.8288 2.38462 13.6176 2.38462H9.35714M5.64286 2.38462V1.38463C5.64286 1.17225 5.80922 1 6.0143 1H8.9857C9.1908 1 9.35714 1.17227 9.35714 1.38463V2.38462M5.64286 2.38462H9.35714M5.17857 7.46154V16.5M7.73214 7.46154V16.5M10.2857 7.46154V16.5" stroke="#FF6263"/>
</svg>
