<svg width="26" height="25" viewBox="0 0 26 25" fill="none" xmlns="http://www.w3.org/2000/svg">
<path d="M7.14167 0V4.26666M18.875 0V4.26666M21 1.6H22.5917C23.9206 1.6 25 2.67941 25 4.00833V9.59999M5 1.6H3.40833C2.0794 1.6 1 2.67941 1 4.00833V9.59999M9.26667 2.13333H16.7333M7.14167 4.26666C7.88121 4.26666 8.475 4.86046 8.475 5.6C8.475 6.33953 7.88121 6.93333 7.14167 6.93333C6.40212 6.93333 5.80833 6.33953 5.80833 5.6C5.80833 4.86046 6.40212 4.26666 7.14167 4.26666ZM18.875 4.26666C19.6145 4.26666 20.2083 4.86046 20.2083 5.6C20.2083 6.33953 19.6145 6.93333 18.875 6.93333C18.1355 6.93333 17.5417 6.33953 17.5417 5.6C17.5417 4.86046 18.1355 4.26666 18.875 4.26666ZM1 9.59999V21.5917C1 22.9206 2.0794 24 3.40833 24H22.5917C23.9206 24 25 22.9206 25 21.5917V9.59999M1 9.59999H1.53333H24.4667H25" stroke="black"/>
</svg>
