<svg width="28" height="24" viewBox="0 0 28 24" fill="none" xmlns="http://www.w3.org/2000/svg">
<path d="M11.5513 18.0076L1.16599 4.98757C1.05732 4.85506 0.998784 4.69147 1.00002 4.52366V1.76477C1.00223 1.34107 1.36679 0.998926 1.8148 1.00009H26.1858C26.6338 0.998898 26.9978 1.34097 27 1.76468V4.52357C27.0007 4.69395 26.9405 4.85964 26.8291 4.99356L16.4488 18.0076M11.5513 18.0076V20.9684C11.5521 21.2794 11.7501 21.5597 12.0537 21.6791L15.3273 22.9409C15.4263 22.9797 15.5325 22.9998 15.6397 23C15.8551 22.9998 16.0613 22.9187 16.2132 22.7742C16.3651 22.6298 16.4498 22.4342 16.4488 22.2304V18.0076M11.5513 18.0076L16.4488 18.0076M22.1528 5.18344H5.83781" stroke="black" stroke-linecap="round"/>
</svg>
