<svg width="28" height="26" viewBox="0 0 28 26" fill="none" xmlns="http://www.w3.org/2000/svg">
<path d="M15.5255 15.4144C15.4561 15.4321 15.3881 15.4489 15.3202 15.4666C14.8618 15.5843 14.4159 15.6988 13.9864 15.8011L13.407 15.9397C12.2414 16.2178 11.0498 16.5018 9.87319 16.8399M15.5255 15.4144C14.3768 14.4969 13.3732 13.4367 12.575 12.2902C12.3995 12.038 12.2313 11.7867 12.0698 11.5354M15.5255 15.4144L17.6118 14.9081C19.2295 14.5519 20.489 14.3924 21.6575 14.3924C22.7488 14.3924 23.709 14.536 24.593 14.8313C24.6157 14.8391 26.9025 15.6607 26.9969 16.9412C27.0157 17.183 26.9714 17.7874 26.1731 18.1791C25.2867 18.6149 23.9765 18.7321 22.5015 18.5299C20.7503 18.2904 18.9547 17.6374 17.2849 16.6363L15.5255 15.4144ZM9.87319 16.8399C10.3205 15.8229 10.736 14.795 11.1429 13.7898C11.4441 13.0459 11.7517 12.2856 12.0698 11.5354M9.87319 16.8399L7.69102 17.5502C5.79422 18.2577 4.23629 19.1157 2.93769 20.169C2.0869 20.8579 1.06162 21.9108 1.00281 23.0101C0.974369 23.5277 1.16236 24.0025 1.5451 24.3829C1.95145 24.7869 2.46241 24.9995 3.02398 25C4.87884 25 6.66381 22.5975 7.0022 22.1158C7.68379 21.1474 8.32152 20.0672 8.94672 18.8212L9.87319 16.8399ZM12.0698 11.5354L11.0219 9.71269C9.57674 6.85299 9.32656 4.45636 10.2786 2.58322C10.8122 1.53213 11.4687 1 12.2308 1C13.3419 1 14.1589 2.14742 14.2626 3.85561C14.3908 5.98595 13.6841 7.88817 12.8994 9.65725L12.0698 11.5354Z" stroke="black"/>
</svg>
