<svg width="21" height="14" viewBox="0 0 21 14" fill="none" xmlns="http://www.w3.org/2000/svg">
<path d="M10.5 13C4.48834 13 1.19774 7.45681 1.07118 7.24361C0.976274 7.09128 0.976274 6.93896 1.07118 6.78684C1.19764 6.54316 4.48834 1 10.5 1C16.5117 1 19.8023 6.54319 19.9288 6.75639C20.0237 6.90872 20.0237 7.06105 19.9288 7.21316C19.8024 7.45684 16.5117 13 10.5 13ZM10.5 10.6548C8.41168 10.6548 6.70321 9.01018 6.70321 6.99996C6.70321 4.98974 8.41168 3.34516 10.5 3.34516C12.5883 3.34516 14.2968 4.98974 14.2968 6.99996C14.2968 9.01018 12.5883 10.6548 10.5 10.6548Z" stroke="#8A949F"/>
</svg>
